<svg id="eEwjIeX3TMY1" xmlns="http://www.w3.org/2000/svg" xmlns:xlink="http://www.w3.org/1999/xlink" viewBox="0 0 300 100" shape-rendering="geometricPrecision" text-rendering="geometricPrecision" project-id="c20e0f10683746c8bddda352023d3e6f" export-id="f961136eae794f0babfab7c73e0e74c3" cached="false"><g transform="translate(0 -102.866047)"><rect width="300" height="88.1921" rx="30" ry="30" transform="translate(0 108.77)" stroke-width="0"/><g transform="matrix(0.575628 0 0 0.573942 27.5927 131.716)"><path d="M68.5,72.5h-22.1v-26.1h-24.3v26.1h-22.1L0,3.7h22.1v25.1h24.3v-25.1h22.1v68.8Zm112.4,0h-16.3l-1.3-8q-3.1,4.3-8.15,6.75t-10.65,2.45q-9.2,0-13.8-5.1t-4.6-14.7v-34.2h19.9v31.8q0,3.4,1.75,5.45t4.95,2.05q3.7,0,6-2.4t2.3-5.9v-31h19.9v52.8ZM395,25.9L372.6,59h23.3v13.5h-51.5v-6.5l22.2-32.8h-21v-13.5h49.4v6.2ZM294.7,19.7h11.2v13.5h-11.2v20.1q0,3.6,1.2,5.25t4.4,1.65h5.6v11.7q-2.4.8-6.2,1.3t-6.6.5q-8.8,0-13.55-3.2t-4.75-10.9v-26.4h-7.4v-13.5h8.2l4.3-16h14.8v16Zm-174.8-.1v16.7h-6.4q-6.2,0-8.95,3.2t-2.75,9.5v23.5h-19.9v-52.8h16.3l1.3,8q1.8-4.6,5.7-6.95t8.8-2.35q2.3,0,4.1.55t1.8.65Zm111.1,0v16.7h-6.4q-6.2,0-8.95,3.2t-2.75,9.5v23.5h-19.9v-52.8h16.3l1.3,8q1.8-4.6,5.7-6.95t8.8-2.35q2.3,0,4.1.55t1.8.65Zm27,52.9h-19.9v-52.8h19.9v52.8Zm77.7,0h-19.9v-52.8h19.9v52.8Zm89.6,0h-21.2v-19.9h21.2v19.9ZM258,13.5h-19.9v-13.5h19.9v13.5Zm77.7,0h-19.9v-13.5h19.9v13.5Z" fill="#fff" fill-rule="evenodd" stroke="#fff" stroke-width="0.944882" stroke-linecap="round"/></g></g></svg>
